<svg width="32" height="32" viewBox="0 0 32 32" fill="none" xmlns="http://www.w3.org/2000/svg">
  <path fill-rule="evenodd" clip-rule="evenodd"
        d="M4.21359 0H27.7864C30.1068 0 32 1.88292 32 4.21231V27.7877C32 30.1074 30.1165 32 27.7864 32H4.21359C1.8932 32 0 30.1171 0 27.7877V4.20261C0 1.88292 1.88349 0 4.21359 0Z"
        fill="#5468FF"/>
  <path fill-rule="evenodd" clip-rule="evenodd"
        d="M16.5054 8.41902C11.5046 8.41902 7.44754 12.4579 7.44754 17.446C7.44754 22.4341 11.5046 26.4633 16.5054 26.4633C21.5063 26.4633 25.5633 22.4244 25.5633 17.4363C25.5633 12.4482 21.516 8.41902 16.5054 8.41902ZM16.5054 23.7997C12.9835 23.7997 10.1231 20.9522 10.1231 17.446C10.1231 13.9398 12.9835 11.0922 16.5054 11.0922C20.0274 11.0922 22.8878 13.9398 22.8878 17.446C22.8878 20.9522 20.0372 23.7997 16.5054 23.7997ZM16.5054 12.3901V17.1264C16.5054 17.262 16.6514 17.3588 16.7779 17.291L21.0003 15.1118C21.0976 15.0633 21.1268 14.9471 21.0782 14.8503C20.2025 13.3199 18.5778 12.2739 16.7 12.2061C16.6027 12.2061 16.5054 12.2836 16.5054 12.3901ZM10.5901 8.91298L10.0355 8.3609C9.49068 7.81851 8.61505 7.81851 8.07021 8.3609L7.40863 9.01952C6.86379 9.56192 6.86379 10.4336 7.40863 10.976L7.95346 11.5184C8.04103 11.6056 8.16751 11.5862 8.24534 11.499C8.5664 11.0632 8.91666 10.6467 9.30582 10.2593C9.70472 9.86217 10.1133 9.51349 10.5609 9.19386C10.6582 9.13575 10.6679 9.00015 10.5901 8.91298ZM19.4729 7.47951V6.38504C19.4729 5.61988 18.8502 5 18.0816 5H14.8417C14.0731 5 13.4505 5.61988 13.4505 6.38504V7.50857C13.4505 7.63448 13.5672 7.72165 13.6937 7.6926C14.5985 7.43108 15.552 7.29549 16.5152 7.29549C17.4395 7.29549 18.354 7.4214 19.2394 7.66354C19.3561 7.6926 19.4729 7.60543 19.4729 7.47951Z"
        fill="white"/>
</svg>
