<svg width="16" height="16" viewBox="0 0 16 16" fill="none" xmlns="http://www.w3.org/2000/svg">
  <path fill-rule="evenodd" clip-rule="evenodd"
        d="M1.37022 2.70366C1.71404 2.35984 2.18036 2.16669 2.66659 2.16669H7.33325C7.60939 2.16669 7.83325 2.39054 7.83325 2.66669C7.83325 2.94283 7.60939 3.16669 7.33325 3.16669H2.66659C2.44557 3.16669 2.23361 3.25448 2.07733 3.41076C1.92105 3.56704 1.83325 3.77901 1.83325 4.00002V13.3334C1.83325 13.5544 1.92105 13.7663 2.07733 13.9226C2.23361 14.0789 2.44557 14.1667 2.66659 14.1667H11.9999C12.2209 14.1667 12.4329 14.0789 12.5892 13.9226C12.7455 13.7663 12.8333 13.5544 12.8333 13.3334V8.66669C12.8333 8.39054 13.0571 8.16669 13.3333 8.16669C13.6094 8.16669 13.8333 8.39054 13.8333 8.66669V13.3334C13.8333 13.8196 13.6401 14.2859 13.2963 14.6297C12.9525 14.9735 12.4861 15.1667 11.9999 15.1667H2.66659C2.18035 15.1667 1.71404 14.9735 1.37022 14.6297C1.02641 14.2859 0.833252 13.8196 0.833252 13.3334V4.00002C0.833252 3.51379 1.02641 3.04747 1.37022 2.70366Z"
        fill="#777AAF"/>
  <path fill-rule="evenodd" clip-rule="evenodd"
        d="M13.3333 1.75244C13.0908 1.75244 12.8583 1.84876 12.6868 2.02021L6.45141 8.25561L6.02045 9.97947L7.7443 9.54851L13.9797 3.3131C14.1512 3.14165 14.2475 2.90912 14.2475 2.66666C14.2475 2.42419 14.1512 2.19166 13.9797 2.02021C13.8083 1.84876 13.5757 1.75244 13.3333 1.75244ZM11.9797 1.3131C12.3387 0.954117 12.8256 0.752441 13.3333 0.752441C13.8409 0.752441 14.3278 0.954117 14.6868 1.3131C15.0458 1.67209 15.2475 2.15897 15.2475 2.66666C15.2475 3.17434 15.0458 3.66122 14.6868 4.02021L8.35348 10.3535C8.2894 10.4176 8.20911 10.4631 8.1212 10.4851L5.45453 11.1517C5.28414 11.1943 5.1039 11.1444 4.97971 11.0202C4.85552 10.896 4.80559 10.7158 4.84819 10.5454L5.51486 7.87872C5.53684 7.79081 5.5823 7.71052 5.64638 7.64644L11.9797 1.3131Z"
        fill="#36395A"/>
</svg>
