<svg width="16" height="16" viewBox="0 0 16 16" fill="none" xmlns="http://www.w3.org/2000/svg">
  <path fill-rule="evenodd" clip-rule="evenodd"
        d="M8.63251 1.95369C9.35549 1.25541 10.3238 0.869035 11.3289 0.877769C12.334 0.886503 13.2954 1.28965 14.0061 2.00038C14.7169 2.71111 15.12 3.67256 15.1288 4.67765C15.1375 5.68274 14.7511 6.65104 14.0528 7.37402L14.0468 7.38027L12.0468 9.38015C11.6582 9.76891 11.1905 10.0695 10.6755 10.2617C10.1605 10.4538 9.61019 10.5329 9.06192 10.4936C8.51364 10.4543 7.98022 10.2976 7.49784 10.0341C7.01546 9.77053 6.5954 9.40632 6.26615 8.96615C6.10075 8.74503 6.14592 8.43169 6.36704 8.26628C6.58817 8.10088 6.90151 8.14605 7.06692 8.36718C7.31027 8.69251 7.62075 8.96171 7.97729 9.15651C8.33384 9.3513 8.7281 9.46714 9.13335 9.49616C9.5386 9.52519 9.94535 9.46672 10.326 9.32472C10.7067 9.18272 11.0523 8.96051 11.3396 8.67317L13.3365 6.67631C13.8507 6.14226 14.1352 5.42784 14.1288 4.68634C14.1223 3.94345 13.8244 3.23281 13.299 2.70749C12.7737 2.18217 12.0631 1.88419 11.3202 1.87773C10.5785 1.87129 9.86383 2.15597 9.32972 2.67056L8.18572 3.80791C7.98989 4.00261 7.67331 4.00168 7.47862 3.80585C7.28393 3.61002 7.28485 3.29344 7.48068 3.09875L8.63251 1.95369Z"
        fill="white"/>
  <path fill-rule="evenodd" clip-rule="evenodd"
        d="M5.32448 5.73833C5.8395 5.54622 6.38981 5.46711 6.93808 5.50638C7.48636 5.54564 8.01978 5.70236 8.50216 5.96591C8.98454 6.22946 9.4046 6.59367 9.73385 7.03383C9.89925 7.25496 9.85408 7.5683 9.63296 7.7337C9.41183 7.89911 9.09849 7.85394 8.93308 7.63281C8.68973 7.30747 8.37925 7.03827 8.02271 6.84348C7.66616 6.64868 7.2719 6.53284 6.86665 6.50382C6.4614 6.4748 6.05465 6.53327 5.67399 6.67527C5.29332 6.81727 4.94765 7.03947 4.66042 7.32681L2.66355 9.32368C2.14926 9.85773 1.86476 10.5721 1.8712 11.3136C1.87766 12.0565 2.17564 12.7672 2.70096 13.2925C3.22628 13.8178 3.93692 14.1158 4.67981 14.1223C5.42131 14.1287 6.13573 13.8442 6.66978 13.3299L7.80658 12.1931C8.00184 11.9978 8.31842 11.9978 8.51369 12.1931C8.70895 12.3884 8.70895 12.7049 8.51369 12.9002L7.36754 14.0464C6.64457 14.7446 5.67621 15.1309 4.67112 15.1222C3.66603 15.1135 2.70458 14.7103 1.99385 13.9996C1.28312 13.2889 0.879973 12.3274 0.871239 11.3223C0.862505 10.3172 1.24888 9.34894 1.94716 8.62596L1.95319 8.61971L3.95318 6.61983C3.9532 6.61981 3.95316 6.61985 3.95318 6.61983C4.34178 6.23111 4.8095 5.93044 5.32448 5.73833Z"
        fill="white"/>
</svg>
