<svg width="171" height="149" viewBox="0 0 171 149" fill="none" xmlns="http://www.w3.org/2000/svg">
  <g filter="url(#filter0_dd)">
    <path d="M18.6932 39.4771H126.974C128.218 39.4771 129.225 40.4848 129.225 41.7278V97.2931C129.225 98.5362 128.218 99.5439 126.974 99.5439H18.6932C17.4501 99.5439 16.4424 98.5362 16.4424 97.2931V41.7278C16.4424 40.4848 17.4501 39.4771 18.6932 39.4771Z"
          fill="black"/>
  </g>
  <path d="M18.6932 39.4771H126.974C128.218 39.4771 129.225 40.4848 129.225 41.7278V97.2931C129.225 98.5362 128.218 99.5439 126.974 99.5439H18.6932C17.4501 99.5439 16.4424 98.5362 16.4424 97.2931V41.7278C16.4424 40.4848 17.4501 39.4771 18.6932 39.4771Z"
        fill="url(#paint0_linear)"/>
  <g opacity="0.5">
    <path opacity="0.5" fill-rule="evenodd" clip-rule="evenodd"
          d="M29.9741 51.4904H57.7981C58.6274 51.4904 59.2997 52.1627 59.2997 52.992C59.2997 53.8214 58.6274 54.4937 57.7981 54.4937H29.9741C29.1447 54.4937 28.4724 53.8214 28.4724 52.992C28.4724 52.1627 29.1447 51.4904 29.9741 51.4904Z"
          fill="#5369FF"/>
  </g>
  <path opacity="0.5" fill-rule="evenodd" clip-rule="evenodd"
        d="M29.9729 66.507H96.1454C96.9741 66.507 97.6459 67.1788 97.6459 68.0075V68.0098C97.6459 68.8385 96.9741 69.5103 96.1454 69.5103H29.9729C29.1442 69.5103 28.4724 68.8385 28.4724 68.0098V68.0075C28.4724 67.1788 29.1442 66.507 29.9729 66.507Z"
        fill="#C5C9E0"/>
  <path opacity="0.5" fill-rule="evenodd" clip-rule="evenodd"
        d="M29.9729 75.5171H108.176C109.004 75.5171 109.676 76.1889 109.676 77.0176V77.0199C109.676 77.8486 109.004 78.5204 108.176 78.5204H29.9729C29.1442 78.5204 28.4724 77.8486 28.4724 77.0199V77.0176C28.4724 76.1889 29.1442 75.5171 29.9729 75.5171Z"
        fill="#C5C9E0"/>
  <path opacity="0.5" fill-rule="evenodd" clip-rule="evenodd"
        d="M29.9729 84.527H66.07C66.8987 84.527 67.5705 85.1988 67.5705 86.0275V86.0298C67.5705 86.8585 66.8987 87.5303 66.07 87.5303H29.9729C29.1442 87.5303 28.4724 86.8585 28.4724 86.0298V86.0275C28.4724 85.1988 29.1442 84.527 29.9729 84.527Z"
        fill="#C5C9E0"/>
  <path opacity="0.5" fill-rule="evenodd" clip-rule="evenodd"
        d="M72.0784 84.527H108.175C109.004 84.527 109.676 85.1988 109.676 86.0275V86.0298C109.676 86.8585 109.004 87.5303 108.175 87.5303H72.0784C71.2497 87.5303 70.5779 86.8585 70.5779 86.0298V86.0275C70.5779 85.1988 71.2497 84.527 72.0784 84.527Z"
        fill="#C5C9E0"/>
  <g filter="url(#filter1_dd)">
    <path d="M29.4998 71.5215H137.781C139.024 71.5215 140.032 72.5292 140.032 73.7723V129.338C140.032 130.581 139.024 131.588 137.781 131.588H29.4998C28.2567 131.588 27.249 130.581 27.249 129.338V73.7723C27.249 72.5292 28.2567 71.5215 29.4998 71.5215Z"
          fill="black"/>
  </g>
  <path d="M29.4998 71.5215H137.781C139.024 71.5215 140.032 72.5292 140.032 73.7723V129.338C140.032 130.581 139.024 131.588 137.781 131.588H29.4998C28.2567 131.588 27.249 130.581 27.249 129.338V73.7723C27.249 72.5292 28.2567 71.5215 29.4998 71.5215Z"
        fill="url(#paint1_linear)"/>
  <g opacity="0.8">
    <g opacity="0.5">
      <path opacity="0.5"
            d="M68.6049 83.535H40.781C39.9516 83.535 39.2793 84.2074 39.2793 85.0367C39.2793 85.8661 39.9516 86.5384 40.781 86.5384H68.6049C69.4343 86.5384 70.1066 85.8661 70.1066 85.0367C70.1066 84.2074 69.4343 83.535 68.6049 83.535Z"
            fill="#5369FF"/>
    </g>
    <path opacity="0.5" fill-rule="evenodd" clip-rule="evenodd"
          d="M40.7796 98.552H106.952C107.781 98.552 108.453 99.2238 108.453 100.053V100.055C108.453 100.884 107.781 101.555 106.952 101.555H40.7796C39.9509 101.555 39.2791 100.884 39.2791 100.055V100.053C39.2791 99.2238 39.9509 98.552 40.7796 98.552Z"
          fill="#C5C9E0"/>
    <path opacity="0.5" fill-rule="evenodd" clip-rule="evenodd"
          d="M40.7796 107.562H118.982C119.811 107.562 120.483 108.234 120.483 109.062V109.065C120.483 109.893 119.811 110.565 118.982 110.565H40.7796C39.9509 110.565 39.2791 109.893 39.2791 109.065V109.062C39.2791 108.234 39.9509 107.562 40.7796 107.562Z"
          fill="#C5C9E0"/>
    <path opacity="0.5" fill-rule="evenodd" clip-rule="evenodd"
          d="M40.7796 116.572H76.8766C77.7053 116.572 78.3771 117.244 78.3771 118.073V118.075C78.3771 118.904 77.7053 119.575 76.8766 119.575H40.7796C39.9509 119.575 39.2791 118.904 39.2791 118.075V118.073C39.2791 117.244 39.9509 116.572 40.7796 116.572Z"
          fill="#C5C9E0"/>
    <path opacity="0.5" fill-rule="evenodd" clip-rule="evenodd"
          d="M82.885 116.572H118.982C119.811 116.572 120.483 117.244 120.483 118.073V118.075C120.483 118.904 119.811 119.575 118.982 119.575H82.885C82.0563 119.575 81.3845 118.904 81.3845 118.075V118.073C81.3845 117.244 82.0563 116.572 82.885 116.572Z"
          fill="#C5C9E0"/>
  </g>
  <g filter="url(#filter2_dd)">
    <path d="M65.7781 16.4423H152.307C153.55 16.4423 154.558 17.45 154.558 18.693V79.1572C154.558 80.4003 153.55 81.408 152.307 81.408H65.7781C64.5351 81.408 63.5273 80.4003 63.5273 79.1572V18.693C63.5273 17.45 64.5351 16.4423 65.7781 16.4423Z"
          fill="black"/>
  </g>
  <path d="M65.7781 16.4423H152.307C153.55 16.4423 154.558 17.45 154.558 18.693V79.1572C154.558 80.4003 153.55 81.408 152.307 81.408H65.7781C64.5351 81.408 63.5273 80.4003 63.5273 79.1572V18.693C63.5273 17.45 64.5351 16.4423 65.7781 16.4423Z"
        fill="url(#paint2_linear)"/>
  <g opacity="0.5">
    <path opacity="0.5"
          d="M96.8499 28.4557H75.1914C74.362 28.4557 73.6897 29.128 73.6897 29.9574C73.6897 30.7867 74.362 31.459 75.1914 31.459H96.8499C97.6792 31.459 98.3516 30.7867 98.3516 29.9574C98.3516 29.128 97.6792 28.4557 96.8499 28.4557Z"
          fill="#5369FF"/>
  </g>
  <path opacity="0.5" fill-rule="evenodd" clip-rule="evenodd"
        d="M74.8933 43.3246H88.9325C89.7612 43.3246 90.433 43.9964 90.433 44.8251V44.9603C90.433 45.7891 89.7612 46.4609 88.9325 46.4609H74.8933C74.0646 46.4609 73.3928 45.7891 73.3928 44.9603V44.8251C73.3928 43.9964 74.0646 43.3246 74.8933 43.3246Z"
        fill="#C5C9E0"/>
  <path opacity="0.5"
        d="M143.124 43.3246H94.2432C93.3771 43.3246 92.675 44.0267 92.675 44.8927C92.675 45.7588 93.3771 46.4609 94.2432 46.4609H143.124C143.99 46.4609 144.692 45.7588 144.692 44.8927C144.692 44.0267 143.99 43.3246 143.124 43.3246Z"
        fill="#C5C9E0"/>
  <path opacity="0.5" fill-rule="evenodd" clip-rule="evenodd"
        d="M74.8933 52.2855H143.192C144.021 52.2855 144.692 52.9573 144.692 53.786V53.9213C144.692 54.75 144.021 55.4218 143.192 55.4218H74.8933C74.0646 55.4218 73.3928 54.75 73.3928 53.9213V53.786C73.3928 52.9573 74.0646 52.2855 74.8933 52.2855Z"
        fill="#C5C9E0"/>
  <path opacity="0.5" fill-rule="evenodd" clip-rule="evenodd"
        d="M74.8933 61.2462H103.282C104.111 61.2462 104.783 61.918 104.783 62.7467V62.882C104.783 63.7107 104.111 64.3825 103.282 64.3825H74.8933C74.0646 64.3825 73.3928 63.7107 73.3928 62.882V62.7467C73.3928 61.918 74.0646 61.2462 74.8933 61.2462Z"
        fill="#C5C9E0"/>
  <path opacity="0.5"
        d="M143.573 61.2462H109.041C108.175 61.2462 107.473 61.9483 107.473 62.8144C107.473 63.6804 108.175 64.3825 109.041 64.3825H143.573C144.439 64.3825 145.141 63.6804 145.141 62.8144C145.141 61.9483 144.439 61.2462 143.573 61.2462Z"
        fill="#C5C9E0"/>
  <path opacity="0.5" fill-rule="evenodd" clip-rule="evenodd"
        d="M74.8933 70.655H88.9325C89.7612 70.655 90.433 71.3268 90.433 72.1555V72.2908C90.433 73.1195 89.7612 73.7913 88.9325 73.7913H74.8933C74.0646 73.7913 73.3928 73.1195 73.3928 72.2908V72.1555C73.3928 71.3268 74.0646 70.655 74.8933 70.655Z"
        fill="#C5C9E0"/>
  <path opacity="0.5" fill-rule="evenodd" clip-rule="evenodd"
        d="M74.8933 88.5767H103.282C104.111 88.5767 104.783 89.2485 104.783 90.0772V90.2124C104.783 91.0411 104.111 91.7129 103.282 91.7129H74.8933C74.0646 91.7129 73.3928 91.0411 73.3928 90.2124V90.0772C73.3928 89.2485 74.0646 88.5767 74.8933 88.5767Z"
        fill="#C5C9E0"/>
  <defs>
    <filter id="filter0_dd" x="11.4723" y="36.637" width="122.723" height="70.0069" filterUnits="userSpaceOnUse"
            color-interpolation-filters="sRGB">
      <feFlood flood-opacity="0" result="BackgroundImageFix"/>
      <feColorMatrix in="SourceAlpha" type="matrix" values="0 0 0 0 0 0 0 0 0 0 0 0 0 0 0 0 0 0 127 0"/>
      <feOffset dy="2.13002"/>
      <feGaussianBlur stdDeviation="2.48502"/>
      <feColorMatrix type="matrix" values="0 0 0 0 0.145098 0 0 0 0 0.172549 0 0 0 0 0.380392 0 0 0 0.15 0"/>
      <feBlend mode="normal" in2="BackgroundImageFix" result="effect1_dropShadow"/>
      <feColorMatrix in="SourceAlpha" type="matrix" values="0 0 0 0 0 0 0 0 0 0 0 0 0 0 0 0 0 0 127 0"/>
      <feOffset dy="1.06501"/>
      <feGaussianBlur stdDeviation="0.710007"/>
      <feColorMatrix type="matrix" values="0 0 0 0 0.364706 0 0 0 0 0.392157 0 0 0 0 0.580392 0 0 0 0.2 0"/>
      <feBlend mode="normal" in2="effect1_dropShadow" result="effect2_dropShadow"/>
      <feBlend mode="normal" in="SourceGraphic" in2="effect2_dropShadow" result="shape"/>
    </filter>
    <filter id="filter1_dd" x="22.279" y="68.6815" width="122.723" height="70.0069" filterUnits="userSpaceOnUse"
            color-interpolation-filters="sRGB">
      <feFlood flood-opacity="0" result="BackgroundImageFix"/>
      <feColorMatrix in="SourceAlpha" type="matrix" values="0 0 0 0 0 0 0 0 0 0 0 0 0 0 0 0 0 0 127 0"/>
      <feOffset dy="2.13002"/>
      <feGaussianBlur stdDeviation="2.48502"/>
      <feColorMatrix type="matrix" values="0 0 0 0 0.145098 0 0 0 0 0.172549 0 0 0 0 0.380392 0 0 0 0.15 0"/>
      <feBlend mode="normal" in2="BackgroundImageFix" result="effect1_dropShadow"/>
      <feColorMatrix in="SourceAlpha" type="matrix" values="0 0 0 0 0 0 0 0 0 0 0 0 0 0 0 0 0 0 127 0"/>
      <feOffset dy="1.06501"/>
      <feGaussianBlur stdDeviation="0.710007"/>
      <feColorMatrix type="matrix" values="0 0 0 0 0.364706 0 0 0 0 0.392157 0 0 0 0 0.580392 0 0 0 0.2 0"/>
      <feBlend mode="normal" in2="effect1_dropShadow" result="effect2_dropShadow"/>
      <feBlend mode="normal" in="SourceGraphic" in2="effect2_dropShadow" result="shape"/>
    </filter>
    <filter id="filter2_dd" x="58.5573" y="13.6022" width="100.97" height="74.9058" filterUnits="userSpaceOnUse"
            color-interpolation-filters="sRGB">
      <feFlood flood-opacity="0" result="BackgroundImageFix"/>
      <feColorMatrix in="SourceAlpha" type="matrix" values="0 0 0 0 0 0 0 0 0 0 0 0 0 0 0 0 0 0 127 0"/>
      <feOffset dy="2.13002"/>
      <feGaussianBlur stdDeviation="2.48502"/>
      <feColorMatrix type="matrix" values="0 0 0 0 0.145098 0 0 0 0 0.172549 0 0 0 0 0.380392 0 0 0 0.15 0"/>
      <feBlend mode="normal" in2="BackgroundImageFix" result="effect1_dropShadow"/>
      <feColorMatrix in="SourceAlpha" type="matrix" values="0 0 0 0 0 0 0 0 0 0 0 0 0 0 0 0 0 0 127 0"/>
      <feOffset dy="1.06501"/>
      <feGaussianBlur stdDeviation="0.710007"/>
      <feColorMatrix type="matrix" values="0 0 0 0 0.364706 0 0 0 0 0.392157 0 0 0 0 0.580392 0 0 0 0.2 0"/>
      <feBlend mode="normal" in2="effect1_dropShadow" result="effect2_dropShadow"/>
      <feBlend mode="normal" in="SourceGraphic" in2="effect2_dropShadow" result="shape"/>
    </filter>
    <linearGradient id="paint0_linear" x1="72.8338" y1="99.5439" x2="72.8338" y2="39.4771"
                    gradientUnits="userSpaceOnUse">
      <stop stop-color="#F5F5FA"/>
      <stop offset="1" stop-color="white"/>
    </linearGradient>
    <linearGradient id="paint1_linear" x1="83.6405" y1="131.588" x2="83.6405" y2="71.5215"
                    gradientUnits="userSpaceOnUse">
      <stop stop-color="#F5F5FA"/>
      <stop offset="1" stop-color="white"/>
    </linearGradient>
    <linearGradient id="paint2_linear" x1="109.043" y1="81.408" x2="109.043" y2="16.4423"
                    gradientUnits="userSpaceOnUse">
      <stop stop-color="#F5F5FA"/>
      <stop offset="1" stop-color="white"/>
    </linearGradient>
  </defs>
</svg>
