<svg viewBox="0 0 24 16" fill="none"
  xmlns="http://www.w3.org/2000/svg">
  <path d="M24 7.917c-1.172 2.249-4.719 1.87-6.921.847L15.62 11.45c2.288 1.694 8.18 1.14 8.38-3.534z" fill="url(#paint0_linear)"/>
  <path d="M11.333 14.018c.476.273 4.66 1.982 4.66 1.982.063-.053.123-.112.176-.175l-.984-3.338-1.18-.364a.497.497 0 01-.252-.279 16.701 16.701 0 01-.218-1.007L8.77 9.974l.413.353.989.85s.33.167.463.707c.105.424.373 1.435.483 1.85a.387.387 0 00.023.062.448.448 0 00.192.222z" fill="#3944A0"/>
  <path d="M11.156 14.191c.586.34 2.654 1.467 4.836 1.81l-.984-3.34-1.179-.363a.494.494 0 01-.252-.278 16.587 16.587 0 01-.201-.918l-.017-.09-4.762-.862.412.354.986.849s.33.166.464.706c.104.424.372 1.435.483 1.85a.399.399 0 00.022.062c.038.093.106.17.192.22z" fill="#5468FF"/>
  <path style="mix-blend-mode:multiply" opacity=".5" d="M11.156 14.191c.586.34 2.654 1.467 4.836 1.81l-.984-3.34-1.179-.363a.494.494 0 01-.252-.278 16.587 16.587 0 01-.201-.918l-.017-.09-4.762-.862.412.354.986.849s.33.166.464.706c.104.424.372 1.435.483 1.85a.399.399 0 00.022.062c.038.093.106.17.192.22z" fill="url(#paint1_linear)"/>
  <path d="M11.805 3.433l.067-.383 1.83.495c.093.025.186.056.275.094.134.06.431.148.857.024.436-.126 1.449-.401 1.949-.535.032-.007.06-.016.087-.022a.494.494 0 01.388.054c.651.393 2.886 1.815 4.444 3.791l.01.25-4.174-2.947-3.613.849-2.12-1.67z" fill="#3944A0"/>
  <path d="M16.56 7.036c.143-.024.29.01.408.095l1.01.968 3.734-.898c-1.557-1.976-3.792-3.399-4.445-3.791a.498.498 0 00-.389-.055c-.027.006-.055.015-.087.023-.5.137-1.513.41-1.949.535-.59.172-.937-.064-.937-.064l-1.934-.715 3.503 4.255s.866-.303 1.086-.353z" fill="#5468FF"/>
  <path style="mix-blend-mode:overlay" opacity=".3" d="M16.56 7.056c.143-.024.29.01.408.095l1.01.968 3.734-.898c-1.557-1.976-3.792-3.399-4.445-3.791a.498.498 0 00-.389-.055c-.027.006-.055.015-.087.023-.5.137-1.513.41-1.949.535-.59.172-.937-.064-.937-.064l-1.934-.715 3.503 4.255s.866-.303 1.086-.353z" fill="url(#paint2_radial)"/>
  <path d="M16.56 7.056c.143-.024.29.01.408.095l1.01.968 3.734-.898c-1.557-1.976-3.792-3.399-4.445-3.791a.498.498 0 00-.389-.055c-.027.006-.055.015-.087.023-.5.137-1.513.41-1.949.535-.59.172-.937-.064-.937-.064l-1.934-.715 3.503 4.255s.866-.303 1.086-.353z" fill="url(#paint3_linear)"/>
  <path d="M1.504 4.997A22.6 22.6 0 014.287.057C2.124-.148.482.217.133.835c-.391.69.1 2.367 1.371 4.162z" fill="url(#paint4_linear)"/>
  <path d="M10.4 3.61a.164.164 0 00-.241.091.173.173 0 00.047.183.164.164 0 00.254-.043.172.172 0 00-.06-.231zM4.3.81a.163.163 0 00-.184.013.17.17 0 00-.059.179.17.17 0 00.051.083.164.164 0 00.274-.106.173.173 0 00-.083-.169zM9.15 5.959a.163.163 0 00-.185.011.17.17 0 00-.06.179.17.17 0 00.051.083.164.164 0 00.254-.042.173.173 0 00-.06-.231zM3.213 2.458a.163.163 0 00-.184.011.17.17 0 00-.06.179.17.17 0 00.05.084.164.164 0 00.254-.043.173.173 0 00-.06-.231zM2.36 4.245a.164.164 0 00-.185.012.17.17 0 00-.06.18.17.17 0 00.051.083.164.164 0 00.254-.042.174.174 0 00-.06-.233zM7.783 8.237a.163.163 0 00-.184.011.17.17 0 00-.06.178.17.17 0 00.05.084.164.164 0 00.254-.041.172.172 0 00-.06-.232z" fill="#848AB8"/>
  <path d="M7.33 9.878c.55.242 1.118.446 1.697.61 1.42.418 2.893.62 4.37.599l.294-.008c.183-.008.36-.018.528-.03l1.66-2.931c-.113-.24-.24-.489-.383-.746-.754-1.367-1.914-2.946-3.5-4.252-.189-.157-.398-.286-.603-.433a69.817 69.817 0 01-1.916 3.634A69.456 69.456 0 017.33 9.878z" fill="url(#paint5_linear)"/>
  <path style="mix-blend-mode:multiply" opacity=".5" d="M7.33 9.878c.55.242 1.118.446 1.697.61 1.42.418 2.893.62 4.37.599l.294-.008c.183-.008.36-.018.528-.03l1.66-2.931c-.113-.24-.24-.489-.383-.746-.754-1.367-1.914-2.946-3.5-4.252-.189-.157-.398-.286-.602-.433a69.898 69.898 0 01-1.917 3.634A69.42 69.42 0 017.33 9.878z" fill="url(#paint6_linear)"/>
  <path d="M10.4 3.61a.164.164 0 00-.241.091.173.173 0 00.047.183.164.164 0 00.254-.043.172.172 0 00-.06-.231zM4.3.81a.163.163 0 00-.184.013.17.17 0 00-.059.179.17.17 0 00.051.083.164.164 0 00.274-.106.173.173 0 00-.083-.169zM9.15 5.959a.163.163 0 00-.185.011.17.17 0 00-.06.179.17.17 0 00.051.083.164.164 0 00.254-.042.173.173 0 00-.06-.231zM3.213 2.458a.163.163 0 00-.184.011.17.17 0 00-.06.179.17.17 0 00.05.084.164.164 0 00.254-.043.173.173 0 00-.06-.231zM2.36 4.245a.164.164 0 00-.185.012.17.17 0 00-.06.18.17.17 0 00.051.083.164.164 0 00.254-.042.174.174 0 00-.06-.233zM7.783 8.237a.163.163 0 00-.184.011.17.17 0 00-.06.178.17.17 0 00.05.084.164.164 0 00.254-.041.172.172 0 00-.06-.232z" fill="#848AB8"/>
  <path d="M3.927 7.665a15.154 15.154 0 01-2.423-2.67c.361-.888.78-1.751 1.251-2.584.461-.817.973-1.604 1.532-2.355a14.9 14.9 0 016.08 1.977c.346.205.682.427 1.007.666a70.336 70.336 0 01-1.93 3.658 69.126 69.126 0 01-2.136 3.535c-.36-.166-.717-.353-1.07-.559a15.668 15.668 0 01-2.31-1.668z" fill="url(#paint7_linear)"/>
  <path d="M10.233 3.903a.163.163 0 00.184-.012.174.174 0 00.008-.262.164.164 0 00-.253.043.169.169 0 00-.017.128.17.17 0 00.078.103zM8.983 6.252a.163.163 0 00.184-.013.17.17 0 00.059-.178.17.17 0 00-.051-.084.164.164 0 00-.274.106.173.173 0 00.033.126c.014.018.03.032.05.043zM7.617 8.53a.164.164 0 00.24-.09.173.173 0 00-.047-.183.164.164 0 00-.274.105.172.172 0 00.032.125c.014.018.03.033.049.044z" fill="#848AB8"/>
  <path d="M8.983 6.252a.163.163 0 00.184-.013.17.17 0 00.059-.178.17.17 0 00-.051-.084.164.164 0 00-.274.106.173.173 0 00.033.126c.014.018.03.032.05.043zM7.617 8.53a.164.164 0 00.24-.09.173.173 0 00-.047-.183.164.164 0 00-.274.105.172.172 0 00.032.125c.014.018.03.033.049.044zM10.233 3.903a.163.163 0 00.184-.012.174.174 0 00.008-.262.164.164 0 00-.253.043.169.169 0 00-.017.128.17.17 0 00.078.103zM3.043 2.75a.163.163 0 00.184-.011.17.17 0 00.06-.179.17.17 0 00-.051-.083.165.165 0 00-.274.105.172.172 0 00.081.169zM4.134 1.101a.163.163 0 00.184-.012.173.173 0 00.009-.262.165.165 0 00-.183-.024.168.168 0 00-.07.067.173.173 0 00.06.231zM2.192 4.536a.164.164 0 00.186-.011.17.17 0 00.06-.18.171.171 0 00-.051-.084.165.165 0 00-.255.044.175.175 0 00.06.231z" fill="#848AB8"/>
  <path d="M14.23 11.499l.853.502a.234.234 0 00.326-.089l1.753-3.1a.248.248 0 00-.087-.333l-.853-.503a.234.234 0 00-.326.089l-1.752 3.1a.248.248 0 00.016.27.236.236 0 00.07.064z" fill="url(#paint8_linear)"/>
  <path d="M14.23 11.499l.853.502a.234.234 0 00.326-.089l1.753-3.1a.248.248 0 00-.087-.333l-.853-.503a.234.234 0 00-.326.089l-1.752 3.1a.248.248 0 00.016.27.236.236 0 00.07.064z" fill="#D6D6E7"/>
  <path d="M7.309 9.893c.073.034.147.069.22.099A68.543 68.543 0 009.652 6.48a68.739 68.739 0 001.921-3.64 11.288 11.288 0 00-.2-.137 70.305 70.305 0 01-1.93 3.658l-.268.47c-.176.305-.352.605-.528.9l-.268.452-.045.074-.181.298-.012.018a46.92 46.92 0 01-.831 1.32z" fill="url(#paint9_linear)"/>
  <path style="mix-blend-mode:multiply" d="M1.504 4.996a30.608 30.608 0 01.426-.978c.15-.328.313-.654.486-.981a18.494 18.494 0 01.34-.625 21.003 21.003 0 01.933-1.51c.067-.096.13-.193.197-.286.134-.19.268-.376.402-.557a6.719 6.719 0 00-.282-.023 22.608 22.608 0 00-2.662 4.725c.049.078.102.155.16.235z" fill="url(#paint10_linear)"/>
  <path d="M3.117 1.792z" fill="url(#paint11_linear)"/>
  <path style="mix-blend-mode:multiply" d="M7.309 9.893c.073.034.147.069.22.099A68.543 68.543 0 009.652 6.48a68.739 68.739 0 001.921-3.64 11.288 11.288 0 00-.2-.137 70.305 70.305 0 01-1.93 3.658l-.268.47c-.176.305-.352.605-.528.9l-.268.452-.045.074-.181.298-.012.018a46.92 46.92 0 01-.831 1.32z" fill="url(#paint12_linear)"/>
  <path d="M9.223 4.126a1.584 1.584 0 00.075-1.395c-.24-.6-.795-1.107-1.524-1.388-1.28-.495-2.693-.158-3.217.77a1.583 1.583 0 00-.075 1.393c.24.602.795 1.107 1.524 1.388 1.28.496 2.693.158 3.217-.768z" fill="#3944A0"/>
  <path d="M9.323 3.949A1.582 1.582 0 009.4 2.555c-.24-.601-.795-1.108-1.523-1.39-1.281-.494-2.693-.156-3.217.77a1.583 1.583 0 00-.077 1.395c.24.6.795 1.107 1.523 1.388 1.28.495 2.692.158 3.217-.77z" fill="#5468FF"/>
  <path d="M6.89 4.285C5.802 4.148 5 3.371 5.099 2.551c.1-.82 1.063-1.373 2.152-1.235 1.09.137 1.892.914 1.793 1.734-.1.82-1.063 1.373-2.152 1.235z" fill="url(#paint13_radial)"/>
  <path style="mix-blend-mode:multiply" d="M8.843 3.57a.953.953 0 00.056-.09c.42-.74-.06-1.647-1.07-2.022-1.01-.376-2.17-.08-2.59.662l-.045.09c.459-.677 1.566-.934 2.533-.574.968.36 1.452 1.21 1.116 1.933z" fill="url(#paint14_linear)"/>
  <path d="M14.19 10.933l4.88 2.36-2.75-2.495c-1.77-.846-1.95-1.251-1.95-1.251l-4.233-1.919L12.25 8.95c.096.06.184.134.26.22.23.262.744.846.912 1.052.22.268.767.71.767.71z" fill="#5468FF"/>
  <path style="mix-blend-mode:multiply" opacity=".5" d="M14.19 10.933l4.88 2.36-2.75-2.495c-1.77-.846-1.95-1.251-1.95-1.251l-4.233-1.919L12.25 8.95c.096.06.184.134.26.22.23.262.744.846.912 1.052.22.268.767.71.767.71z" fill="url(#paint15_linear)"/>
  <path d="M13.91 11.428l4.88 2.361.28-.495-4.88-2.361s-.548-.443-.767-.71c-.167-.206-.681-.791-.912-1.053a1.207 1.207 0 00-.26-.22l-2.114-1.322-.28.496 2.114 1.321c.096.06.183.135.26.22.23.263.743.848.911 1.053.22.269.768.71.768.71z" fill="#3944A0"/>
  <defs>
    <linearGradient id="paint0_linear" x1="16.392" y1="10.575" x2="24.275" y2="8.723" gradientUnits="userSpaceOnUse">
      <stop stop-color="#F4495D"/>
      <stop offset="1" stop-color="#FAA04B"/>
    </linearGradient>
    <linearGradient id="paint1_linear" x1="13.434" y1="11.057" x2="11.475" y2="14.379" gradientUnits="userSpaceOnUse">
      <stop stop-color="#21243D"/>
      <stop offset="1" stop-color="#21243D" stop-opacity="0"/>
    </linearGradient>
    <linearGradient id="paint3_linear" x1="12.789" y1="8.354" x2="16.737" y2="5.454" gradientUnits="userSpaceOnUse">
      <stop stop-color="#23263B"/>
      <stop offset="1" stop-color="#23263B" stop-opacity="0"/>
    </linearGradient>
    <linearGradient id="paint4_linear" x1="2.896" y1="-.762" x2=".017" y2="4.12" gradientUnits="userSpaceOnUse">
      <stop stop-color="#C5C9E0"/>
      <stop offset="1" stop-color="#848AB8"/>
    </linearGradient>
    <linearGradient id="paint5_linear" x1="4707.72" y1="-8719.09" x2="3668.68" y2="-8719.09" gradientUnits="userSpaceOnUse">
      <stop stop-color="#C5C9E0"/>
      <stop offset="1" stop-color="#848AB8"/>
    </linearGradient>
    <linearGradient id="paint6_linear" x1="9.7" y1="12.473" x2="11.739" y2="7.303" gradientUnits="userSpaceOnUse">
      <stop stop-color="#21243D"/>
      <stop offset="1" stop-color="#21243D" stop-opacity="0"/>
    </linearGradient>
    <linearGradient id="paint7_linear" x1="8.041" y1=".948" x2="4" y2="7.801" gradientUnits="userSpaceOnUse">
      <stop stop-color="#F5F5FA"/>
      <stop offset="1" stop-color="#C5C9E0"/>
    </linearGradient>
    <linearGradient id="paint8_linear" x1="1614.41" y1="-3993.56" x2="1430.98" y2="-3993.56" gradientUnits="userSpaceOnUse">
      <stop stop-color="#C5C9E0"/>
      <stop offset="1" stop-color="#848AB8"/>
    </linearGradient>
    <linearGradient id="paint9_linear" x1="2351.62" y1="-7901.27" x2="1833.4" y2="-7901.27" gradientUnits="userSpaceOnUse">
      <stop stop-color="#C5C9E0"/>
      <stop offset="1" stop-color="#848AB8"/>
    </linearGradient>
    <linearGradient id="paint10_linear" x1="1562.4" y1="-5957.34" x2="1316.97" y2="-5957.34" gradientUnits="userSpaceOnUse">
      <stop stop-color="#F5F5FA"/>
      <stop offset="1" stop-color="#C5C9E0"/>
    </linearGradient>
    <linearGradient id="paint11_linear" x1="296.908" y1="-1065.38" x2="288.483" y2="-1065.38" gradientUnits="userSpaceOnUse">
      <stop stop-color="#F5F5FA"/>
      <stop offset="1" stop-color="#C5C9E0"/>
    </linearGradient>
    <linearGradient id="paint12_linear" x1="2336.4" y1="-7901.27" x2="1844.66" y2="-7901.27" gradientUnits="userSpaceOnUse">
      <stop stop-color="#F5F5FA"/>
      <stop offset="1" stop-color="#C5C9E0"/>
    </linearGradient>
    <linearGradient id="paint14_linear" x1="-1084.51" y1="-3030.6" x2="-1225.74" y2="-3016.92" gradientUnits="userSpaceOnUse">
      <stop stop-color="#21243D"/>
      <stop offset="1" stop-color="#3A416F"/>
    </linearGradient>
    <linearGradient id="paint15_linear" x1="4366.52" y1="-5606.16" x2="4146.04" y2="-5535.17" gradientUnits="userSpaceOnUse">
      <stop stop-color="#21243D"/>
      <stop offset="1" stop-color="#21243D" stop-opacity="0"/>
    </linearGradient>
    <radialGradient id="paint2_radial" cx="0" cy="0" r="1" gradientUnits="userSpaceOnUse" gradientTransform="rotate(119.478 8.642 9.707) scale(3.96176 3.91944)">
      <stop stop-color="#fff"/>
      <stop offset="1" stop-color="#fff" stop-opacity="0"/>
    </radialGradient>
    <radialGradient id="paint13_radial" cx="0" cy="0" r="1" gradientUnits="userSpaceOnUse" gradientTransform="rotate(173.414 4.232 1.547) scale(3.31092 3.37983)">
      <stop stop-color="#21243D"/>
      <stop offset="1" stop-color="#5A5E9A"/>
    </radialGradient>
  </defs>
</svg>
